<svg width="21.671570" height="20.864014" viewBox="0 0 21.6716 20.864" fill="none" xmlns="http://www.w3.org/2000/svg" xmlns:xlink="http://www.w3.org/1999/xlink">
	<desc>
			Created with Pixso.
	</desc>
	<defs/>
	<mask id="mask_1_1357" fill="white">
		<path id="Subtract" d="M2.98956 2.98962C-0.329834 6.30908 -0.329834 11.6909 2.98956 15.0104C5.33539 17.3562 8.71118 18.0443 11.6613 17.0746C13.0517 16.6176 14.6729 16.6937 15.7078 17.7286L17.7574 19.7782C18.5384 20.5592 19.8047 20.5592 20.5858 19.7782C21.3668 18.9971 21.3668 17.7308 20.5858 16.9497L18.1015 14.4655C17.1769 13.5408 17.0124 12.1306 17.2964 10.8541C17.9067 8.11096 17.1448 5.1239 15.0104 2.98962C11.691 -0.329834 6.30902 -0.329834 2.98956 2.98962ZM5.51471 5.46448C3.56207 7.41711 3.56207 10.5829 5.51471 12.5355C7.46729 14.4882 10.6331 14.4882 12.5858 12.5355C14.5384 10.5829 14.5384 7.41711 12.5858 5.46448C10.6331 3.51184 7.46729 3.51184 5.51471 5.46448Z" clip-rule="evenodd" fill="" fill-opacity="1.000000" fill-rule="evenodd"/>
	</mask>
	<path id="Subtract" d="M2.98956 2.98962C-0.329834 6.30908 -0.329834 11.6909 2.98956 15.0104C5.33539 17.3562 8.71118 18.0443 11.6613 17.0746C13.0517 16.6176 14.6729 16.6937 15.7078 17.7286L17.7574 19.7782C18.5384 20.5592 19.8047 20.5592 20.5858 19.7782C21.3668 18.9971 21.3668 17.7308 20.5858 16.9497L18.1015 14.4655C17.1769 13.5408 17.0124 12.1306 17.2964 10.8541C17.9067 8.11096 17.1448 5.1239 15.0104 2.98962C11.691 -0.329834 6.30902 -0.329834 2.98956 2.98962ZM5.51471 5.46448C3.56207 7.41711 3.56207 10.5829 5.51471 12.5355C7.46729 14.4882 10.6331 14.4882 12.5858 12.5355C14.5384 10.5829 14.5384 7.41711 12.5858 5.46448C10.6331 3.51184 7.46729 3.51184 5.51471 5.46448Z" clip-rule="evenodd" fill="#FFFFFF" fill-opacity="1.000000" fill-rule="evenodd" mask="url(#mask_1_1357)"/>
	<path id="Subtract" d="M3.34314 3.34314Q2.19202 4.49426 1.58575 5.98938Q1 7.43384 1 9Q1 10.5662 1.58575 12.0106Q2.19202 13.5057 3.34314 14.6569Q4.15845 15.4722 5.15948 16.0204Q6.12903 16.5514 7.21021 16.7983Q8.27521 17.0416 9.36871 16.9916Q10.4656 16.9413 11.5051 16.5996Q12.0875 16.4082 12.6786 16.3416Q13.3013 16.2715 13.8817 16.3462Q14.507 16.4268 15.0419 16.6707Q15.6208 16.9346 16.0614 17.3751L18.1109 19.4246Q18.327 19.6406 18.6069 19.7542Q18.8776 19.864 19.1716 19.864Q19.4655 19.864 19.7363 19.7542Q20.0162 19.6406 20.2322 19.4247Q20.4482 19.2086 20.5618 18.9287Q20.6716 18.658 20.6716 18.364Q20.6716 18.0701 20.5618 17.7993Q20.4482 17.5193 20.2322 17.3033L17.748 14.8191Q16.9796 14.0507 16.7548 12.8865Q16.5583 11.8691 16.8083 10.7455Q17.024 9.77625 16.9971 8.78174Q16.97 7.78552 16.7013 6.82874Q16.428 5.85596 15.9216 4.98425Q15.3993 4.08557 14.6569 3.34314Q13.5057 2.19202 12.0107 1.58569Q10.5662 1 9 1Q7.43378 1 5.98932 1.58569Q4.49426 2.19202 3.34314 3.34314ZM2.63605 2.63599Q3.93054 1.34155 5.61353 0.659058Q7.23877 0 9 0Q10.7612 0 12.3865 0.659058Q14.0695 1.34155 15.364 2.63599Q16.1985 3.47058 16.7862 4.48193Q17.3564 5.46338 17.6641 6.55835Q17.9663 7.6344 17.9967 8.75464Q18.027 9.87268 17.7845 10.9628Q17.5796 11.8835 17.7366 12.6969Q17.9033 13.5602 18.4551 14.1119L20.9393 16.5962Q21.2988 16.9556 21.4885 17.4235Q21.6716 17.875 21.6716 18.364Q21.6716 18.8529 21.4885 19.3044Q21.2988 19.7723 20.9393 20.1317Q20.58 20.4911 20.1121 20.6809Q19.6606 20.864 19.1716 20.864Q18.6826 20.864 18.2311 20.6809Q17.7632 20.4911 17.4038 20.1317L15.3543 18.0823Q14.7368 17.4646 13.754 17.338Q13.2933 17.2787 12.7905 17.3353Q12.3019 17.3904 11.8174 17.5496Q10.6479 17.934 9.41449 17.9905Q8.18512 18.0469 6.98749 17.7732Q5.77069 17.4952 4.67914 16.8975Q3.55255 16.2805 2.63605 15.364Q1.34155 14.0695 0.659058 12.3865Q0 10.7612 0 9Q0 7.23877 0.659058 5.61353Q1.34155 3.93054 2.63605 2.63599ZM5.86823 5.81799Q5.22064 6.46558 4.8797 7.3064Q4.55023 8.11877 4.55023 9Q4.55023 9.8811 4.8797 10.6936Q5.22064 11.5343 5.86823 12.182Q6.51587 12.8296 7.35663 13.1705Q8.16907 13.5 9.05023 13.5Q9.9314 13.5 10.7438 13.1705Q11.5846 12.8296 12.2322 12.182Q12.8798 11.5343 13.2208 10.6936Q13.5502 9.8811 13.5502 9Q13.5502 8.11877 13.2208 7.3064Q12.8798 6.46558 12.2322 5.81799Q11.5846 5.17041 10.7438 4.82947Q9.9314 4.5 9.05023 4.5Q8.16907 4.5 7.35663 4.82947Q6.51587 5.17041 5.86823 5.81799ZM5.16113 5.11084Q5.95215 4.31995 6.98083 3.90271Q7.97406 3.5 9.05023 3.5Q10.1264 3.5 11.1196 3.90271Q12.1483 4.31995 12.9393 5.11084Q13.7303 5.90186 14.1475 6.93054Q14.5502 7.92383 14.5502 9Q14.5502 10.0762 14.1475 11.0693Q13.7303 12.098 12.9393 12.889Q12.1483 13.6801 11.1196 14.0972Q10.1264 14.5 9.05023 14.5Q7.97406 14.5 6.98083 14.0972Q5.95215 13.6801 5.16113 12.889Q4.37012 12.098 3.953 11.0693Q3.55023 10.0762 3.55023 9Q3.55023 7.92383 3.953 6.93054Q4.37012 5.90186 5.16113 5.11084Z" fill="#FFFFFF" fill-opacity="1.000000" fill-rule="nonzero"/>
</svg>
